<svg width="54" height="54" viewBox="0 0 54 54" fill="none" xmlns="http://www.w3.org/2000/svg">
<g clip-path="url(#clip0)">
<path d="M49.0644 29.9703L6.71933 36.5448C5.55484 36.7256 4.45413 35.9207 4.27333 34.7562L0.657343 11.4664C0.476544 10.3019 1.2814 9.20122 2.44589 9.02042L44.791 2.4459C45.9555 2.2651 47.0562 3.06996 47.237 4.23445L50.853 27.5242C51.0337 28.6887 50.2288 29.7895 49.0644 29.9703Z" fill="#0E9347"/>
<path d="M42.4567 22.323C40.0218 22.7011 37.9795 24.2107 37.005 26.3134C35.8642 25.9486 34.634 25.7059 33.2578 25.9196C29.5526 26.4948 26.9099 29.724 26.9394 33.4054L49.0647 29.9702C50.1233 29.8059 50.8552 28.9334 50.9026 27.8418C49.9038 24.2024 46.2677 21.7313 42.4567 22.323Z" fill="#0D8944"/>
<path d="M44.5014 28.5105L10.6253 33.7701C10.2637 31.4411 8.06241 29.8315 5.73343 30.1931L3.43235 15.3723C5.76133 15.0107 7.37097 12.8094 7.00937 10.4804L40.8855 5.22075C41.2471 7.54973 43.4484 9.15938 45.7774 8.79778L48.0784 23.6186C45.7495 23.9801 44.1398 26.1815 44.5014 28.5105Z" fill="#3BB54A"/>
<path d="M42.4562 22.3231C40.0214 22.7011 37.9791 24.2107 37.0045 26.3135C35.8638 25.9486 34.6335 25.7059 33.2573 25.9196C30.2932 26.3798 28.0155 28.4681 27.2455 31.1895L44.5011 28.5104C44.1395 26.1814 45.6598 24.1023 47.9723 23.6349C46.3988 22.5782 44.4677 22.0107 42.4562 22.3231Z" fill="#0E9347"/>
<path d="M27.2342 29.023C31.9115 28.2968 35.0409 23.4424 34.224 18.1804C33.407 12.9185 28.953 9.24152 24.2757 9.96772C19.5984 10.6939 16.4689 15.5483 17.2859 20.8102C18.1029 26.0722 22.5569 29.7492 27.2342 29.023Z" fill="#0E9347"/>
<path d="M13.3802 23.585C14.5495 23.4034 15.3503 22.3083 15.1688 21.139C14.9872 19.9696 13.8921 19.1689 12.7227 19.3504C11.5534 19.532 10.7526 20.6271 10.9342 21.7964C11.1158 22.9658 12.2109 23.7665 13.3802 23.585Z" fill="#0E9347"/>
<path d="M38.7874 19.6403C39.9568 19.4587 40.7575 18.3636 40.576 17.1943C40.3944 16.0249 39.2993 15.2242 38.13 15.4057C36.9606 15.5873 36.1599 16.6824 36.3414 17.8517C36.523 19.0211 37.6181 19.8218 38.7874 19.6403Z" fill="#0E9347"/>
<path d="M26.6495 18.2724L24.5322 18.6011C23.897 18.6997 23.4079 18.342 23.3093 17.7069C23.2107 17.0717 23.5684 16.5825 24.2035 16.4839L27.3794 15.9908C28.0146 15.8922 28.3722 15.403 28.2736 14.7679C28.175 14.1327 27.6858 13.775 27.0507 13.8736L25.9921 14.038C25.8935 13.4028 25.4042 13.0452 24.7691 13.1438C24.1339 13.2424 23.7763 13.7316 23.8749 14.3667C22.0752 14.6461 20.9127 16.236 21.1921 18.0357C21.4715 19.8354 23.0614 20.9979 24.8611 20.7185L26.9783 20.3897C27.6135 20.2911 28.1027 20.6489 28.2013 21.284C28.2999 21.9192 27.9422 22.4083 27.3071 22.5069L24.1312 23C23.496 23.0986 23.1384 23.5879 23.237 24.223C23.3356 24.8581 23.8248 25.2158 24.4599 25.1172L25.5185 24.9528C25.6171 25.588 26.1063 25.9457 26.7415 25.8471C27.3766 25.7484 27.7343 25.2592 27.6357 24.6241C29.4354 24.3447 30.5979 22.7548 30.3185 20.9552C30.039 19.1555 28.4492 17.993 26.6495 18.2724Z" fill="#89C763"/>
<path d="M33.4415 41.0692C37.5342 40.4338 40.3368 36.6009 39.7014 32.5082C39.066 28.4155 35.2331 25.6129 31.1404 26.2483C27.0477 26.8837 24.2451 30.7166 24.8805 34.8093C25.516 38.902 29.3488 41.7046 33.4415 41.0692Z" fill="#FFCA5D"/>
<path d="M42.6402 37.4726C46.7329 36.8372 49.5355 33.0043 48.9001 28.9116C48.2647 24.819 44.4318 22.0163 40.3391 22.6518C36.2465 23.2872 33.4438 27.1201 34.0793 31.2127C34.7147 35.3054 38.5476 38.108 42.6402 37.4726Z" fill="#F6B545"/>
<path d="M40.3391 22.6518C36.2105 23.2928 33.4382 27.0841 34.0793 31.2127C34.7203 35.3414 38.5116 38.1136 42.6402 37.4726C46.7689 36.8316 49.5411 33.0403 48.9001 28.9116C48.2591 24.783 44.4678 22.0107 40.3391 22.6518ZM42.3115 35.3553C39.3473 35.8156 36.6568 33.8482 36.1965 30.884C35.7363 27.9198 37.7037 25.2293 40.6679 24.769C43.632 24.3088 46.3226 26.2762 46.7828 29.2404C47.2431 32.2045 45.2757 34.8951 42.3115 35.3553Z" fill="#FFCB5B"/>
<path d="M42.6239 37.3667C46.769 36.8316 49.5248 32.9344 48.9002 28.9116L48.7943 28.9281C48.265 29.0103 47.9072 29.4995 47.8836 30.0452C47.902 31.5602 47.3746 33.0514 46.4639 34.1686C45.7485 35.147 44.6662 35.8571 43.4287 36.266C42.8993 36.3482 42.5417 36.8374 42.6239 37.3667Z" fill="#F6B545"/>
<path d="M40.3556 22.7577C36.2105 23.2928 33.4547 27.19 34.0793 31.2127L34.1852 31.1963C34.7145 31.1141 35.0722 30.6249 35.0959 30.0792C35.0775 28.5642 35.6049 27.073 36.5155 25.9558C37.2309 24.9774 38.3133 24.2673 39.5508 23.8583C40.0801 23.7762 40.4378 23.287 40.3556 22.7577Z" fill="#FFE27A"/>
<path d="M37.0529 31.51C36.5926 28.5458 38.56 25.8552 41.5242 25.395C42.7946 25.1978 44.0248 25.4405 45.109 26.1394C43.8532 25.0334 42.3619 24.5061 40.6682 24.7691C37.704 25.2293 35.7366 27.9199 36.1968 30.884C36.4598 32.5778 37.4145 33.839 38.7269 34.6109C37.8544 33.8791 37.2501 32.7804 37.0529 31.51Z" fill="#F19920"/>
<path d="M45.175 32.8509C45.0691 32.8673 44.9633 32.8838 44.841 32.7943C44.5964 32.6155 44.5471 32.2979 44.7259 32.0533C45.2625 31.3195 45.4322 30.3174 45.3007 29.4705C45.2514 29.1529 45.4302 28.9083 45.7478 28.859C46.0654 28.8097 46.31 28.9886 46.3593 29.3062C46.5401 30.4706 46.2974 31.7009 45.6879 32.6628C45.4926 32.8016 45.2808 32.8345 45.175 32.8509Z" fill="#FFCB5B"/>
<path d="M41.9827 33.2381C41.3476 33.3367 40.8584 32.9789 40.7598 32.3438L40.1023 28.1094C40.0037 27.4742 40.3615 26.985 40.9966 26.8864C41.6317 26.7878 42.1209 27.1456 42.2195 27.7807L42.877 32.0151C42.9756 32.6502 42.6179 33.1395 41.9827 33.2381Z" fill="#F19920"/>
<path d="M46.3763 35.6999C45.2244 33.1684 42.9901 31.347 40.4073 30.7723C39.6058 28.4032 37.6892 26.5325 35.4806 25.5744C34.4238 27.1479 33.8564 29.079 34.1687 31.0904C34.8097 35.2191 38.601 37.9913 42.7296 37.3503C44.1223 37.2424 45.3269 36.6218 46.3763 35.6999Z" fill="#F19920"/>
<path d="M38.7267 34.6109C37.8377 33.7732 37.1276 32.6909 36.9303 31.4206C36.7002 29.9385 37.1217 28.4637 38.0324 27.3466C37.7714 27.0618 37.5267 26.883 37.2822 26.7042C36.3715 27.8213 35.95 29.2961 36.1965 30.8841C36.4596 32.5778 37.4143 33.8389 38.7267 34.6109Z" fill="#E78825"/>
<path d="M40.5298 30.8618L40.7599 32.3438C40.8585 32.979 41.3477 33.3367 41.9828 33.2381C42.6179 33.1395 42.9757 32.6502 42.8771 32.0151L42.8442 31.8034C42.1269 31.3726 41.3202 31.0643 40.5298 30.8618Z" fill="#E78825"/>
<path d="M46.3764 35.6999C46.0496 34.9918 45.7392 34.3895 45.2172 33.82C44.4689 34.5867 43.4761 35.1744 42.3116 35.3552C39.3474 35.8155 36.6568 33.8481 36.1966 30.8839C35.95 29.2959 36.3716 27.8211 37.2822 26.704C36.6708 26.2569 36.0757 25.9155 35.3912 25.6966C34.3345 27.27 33.767 29.2012 34.0793 31.2126C34.7203 35.3412 38.5116 38.1135 42.6403 37.4724C44.1224 37.2424 45.3269 36.6218 46.3764 35.6999Z" fill="#F6B545"/>
<path d="M45.9109 34.7965C45.2521 35.4409 44.3486 35.9064 43.4287 36.266C42.9158 36.4541 42.5581 36.9433 42.6402 37.4726C44.1223 37.2424 45.3269 36.6217 46.3764 35.6999C46.2213 35.3988 46.0661 35.0977 45.9109 34.7965Z" fill="#F19920"/>
<path d="M35.3912 25.6968C34.3345 27.2702 33.767 29.2014 34.0793 31.2127L34.1852 31.1963C34.7145 31.1141 35.0722 30.6249 35.0959 30.0791C35.0775 28.5642 35.6213 27.1787 36.4261 26.0781C36.0921 26.0215 35.7417 25.8591 35.3912 25.6968Z" fill="#FFCB5B"/>
<path d="M33.4415 41.0692C37.5342 40.4338 40.3368 36.6009 39.7014 32.5082C39.066 28.4155 35.2331 25.6129 31.1404 26.2483C27.0477 26.8837 24.2451 30.7166 24.8805 34.8093C25.516 38.902 29.3488 41.7046 33.4415 41.0692Z" fill="#F6B545"/>
<path d="M32.0539 39.1162C32.1689 39.8572 32.3734 40.4759 32.7002 41.1841C32.9119 41.1513 33.2295 41.102 33.4412 41.0691C37.5699 40.4281 40.3421 36.6368 39.7011 32.5081C39.586 31.7671 39.3815 31.1484 39.0547 30.4402C38.843 30.473 38.5255 30.5223 38.3137 30.5552C34.1851 31.1963 31.4129 34.9876 32.0539 39.1162Z" fill="#F19920"/>
<path d="M31.1404 26.2483C27.0117 26.8893 24.2395 30.6806 24.8805 34.8093C25.5215 38.938 29.3128 41.7102 33.4415 41.0692C37.5702 40.4282 40.3424 36.6368 39.7014 32.5082C39.0604 28.3796 35.2691 25.6073 31.1404 26.2483ZM33.1128 38.9518C30.1486 39.412 27.458 37.4446 26.9978 34.4805C26.5376 31.5163 28.505 28.8257 31.4691 28.3655C34.4333 27.9053 37.1239 29.8727 37.5841 32.8368C38.0443 35.801 36.0769 38.4916 33.1128 38.9518Z" fill="#FFCB5B"/>
<path d="M33.4251 40.9632C37.5702 40.4281 40.326 36.531 39.7014 32.5082L39.5955 32.5246C39.0663 32.6068 38.7085 33.0961 38.6849 33.6418C38.7033 35.1568 38.1759 36.648 37.2652 37.7652C36.5498 38.7435 35.4675 39.4536 34.23 39.8627C33.7007 39.9447 33.3429 40.4339 33.4251 40.9632Z" fill="#F6B545"/>
<path d="M31.1569 26.3542C27.0118 26.8893 24.256 30.7865 24.8806 34.8093L24.9865 34.7929C25.5158 34.7107 25.8735 34.2214 25.8971 33.6757C25.8787 32.1608 26.4061 30.6695 27.3168 29.5524C28.0322 28.574 29.1145 27.8639 30.352 27.4548C30.8814 27.3727 31.2391 26.8835 31.1569 26.3542Z" fill="#FFE27A"/>
<path d="M27.8537 35.1065C27.3935 32.1424 29.3609 29.4518 32.3251 28.9916C33.5955 28.7943 34.8257 29.037 35.9099 29.736C34.654 28.63 33.1627 28.1026 31.4689 28.3656C28.5048 28.8258 26.5374 31.5164 26.9976 34.4806C27.2606 36.1744 28.2152 37.4355 29.5277 38.2075C28.6553 37.4757 28.051 36.3769 27.8537 35.1065Z" fill="#F19920"/>
<path d="M35.9763 36.4473C35.8704 36.4638 35.7646 36.4802 35.6422 36.3908C35.3977 36.2119 35.3484 35.8943 35.5272 35.6498C36.0638 34.9159 36.2334 33.9138 36.102 33.067C36.0526 32.7494 36.2315 32.5048 36.5491 32.4555C36.8667 32.4062 37.1112 32.585 37.1605 32.9026C37.3413 34.0671 37.0987 35.2973 36.4891 36.2593C36.2938 36.398 36.0821 36.4309 35.9763 36.4473Z" fill="#FFCB5B"/>
<path d="M32.784 36.8346C32.1488 36.9333 31.6597 36.5755 31.5611 35.9404L30.9036 31.7059C30.805 31.0707 31.1628 30.5816 31.7979 30.483C32.433 30.3844 32.9222 30.7421 33.0208 31.3772L33.6782 35.6117C33.7769 36.2468 33.4192 36.736 32.784 36.8346Z" fill="#F19920"/>
<path d="M36.848 30.8912C37.1583 31.4935 37.4687 32.0959 37.5838 32.8369C38.044 35.801 36.0766 38.4916 33.1125 38.9518C32.7949 39.0011 32.3715 39.0669 32.0374 39.0103L32.0539 39.1162C32.1689 39.8572 32.3734 40.4759 32.7002 41.1842C32.9119 41.1513 33.2295 41.102 33.4412 41.0691C37.5699 40.4281 40.3421 36.6368 39.7011 32.5081C39.586 31.7671 39.3815 31.1484 39.0547 30.4402C38.843 30.473 38.5255 30.5223 38.3138 30.5552C37.7843 30.6375 37.3609 30.7032 36.848 30.8912Z" fill="#F6B545"/>
<path d="M39.7208 46.5991C43.8135 45.9637 46.6161 42.1308 45.9807 38.0381C45.3453 33.9455 41.5124 31.1428 37.4197 31.7783C33.327 32.4137 30.5244 36.2466 31.1598 40.3392C31.7953 44.4319 35.6281 47.2345 39.7208 46.5991Z" fill="#F6B545"/>
<path d="M37.4197 31.7783C33.291 32.4193 30.5188 36.2106 31.1598 40.3392C31.8008 44.4679 35.5921 47.2401 39.7208 46.5991C43.8495 45.9581 46.6217 42.1668 45.9807 38.0381C45.3397 33.9095 41.5484 31.1372 37.4197 31.7783ZM39.3921 44.4818C36.4279 44.9421 33.7373 42.9747 33.2771 40.0105C32.8169 37.0463 34.7843 34.3558 37.7484 33.8955C40.7126 33.4353 43.4032 35.4027 43.8634 38.3669C44.3236 41.331 42.3562 44.0216 39.3921 44.4818Z" fill="#FFCB5B"/>
<path d="M39.7044 46.4932C43.8495 45.9581 46.6053 42.0609 45.9807 38.0381L45.8749 38.0546C45.3456 38.1368 44.9878 38.626 44.9642 39.1717C44.9826 40.6867 44.4552 42.1779 43.5445 43.2951C42.8291 44.2735 41.7468 44.9836 40.5093 45.3926C39.98 45.4747 39.6222 45.9638 39.7044 46.4932Z" fill="#F6B545"/>
<path d="M37.4362 31.8842C33.2911 32.4193 30.5353 36.3165 31.1599 40.3392L31.2658 40.3228C31.7951 40.2406 32.1528 39.7514 32.1764 39.2057C32.158 37.6907 32.6854 36.1994 33.5961 35.0823C34.3115 34.1039 35.3938 33.3938 36.6313 32.9848C37.1607 32.9027 37.5184 32.4135 37.4362 31.8842Z" fill="#FFE27A"/>
<path d="M34.133 40.6364C33.6728 37.6723 35.6402 34.9817 38.6044 34.5215C39.8747 34.3242 41.105 34.5669 42.1892 35.2659C40.9333 34.1599 39.442 33.6326 37.7482 33.8955C34.7841 34.3557 32.8167 37.0463 33.2769 40.0105C33.5399 41.7043 34.4945 42.9654 35.807 43.7374C34.9345 43.0056 34.3303 41.9068 34.133 40.6364Z" fill="#F19920"/>
<path d="M42.2556 41.9773C42.1497 41.9937 42.0439 42.0102 41.9215 41.9207C41.677 41.7419 41.6277 41.4243 41.8065 41.1797C42.3431 40.4459 42.5127 39.4438 42.3812 38.5969C42.3319 38.2793 42.5108 38.0347 42.8284 37.9854C43.146 37.9361 43.3905 38.1149 43.4398 38.4325C43.6206 39.597 43.378 40.8273 42.7684 41.7892C42.5732 41.928 42.3615 41.9608 42.2556 41.9773Z" fill="#FFCB5B"/>
<path d="M39.0633 42.3645C38.4281 42.4632 37.939 42.1054 37.8404 41.4703L37.1829 37.2357C37.0843 36.6006 37.442 36.1114 38.0771 36.0128C38.7123 35.9142 39.2015 36.2719 39.3001 36.907L39.9575 41.1415C40.0563 41.7767 39.6985 42.2659 39.0633 42.3645Z" fill="#F19920"/>
</g>
<defs>
<clipPath id="clip0">
<rect y="7.23196" width="47.1377" height="47.1377" transform="rotate(-8.82531 0 7.23196)" fill="white"/>
</clipPath>
</defs>
</svg>
