<svg width="222" height="101" viewBox="0 0 222 101" fill="none" xmlns="http://www.w3.org/2000/svg">
<g clip-path="url(#clip0)">
<path d="M217.064 39.9703L174.719 46.5448C173.555 46.7256 172.454 45.9207 172.273 44.7562L168.657 21.4664C168.477 20.3019 169.281 19.2012 170.446 19.0204L212.791 12.4459C213.955 12.2651 215.056 13.07 215.237 14.2344L218.853 37.5242C219.034 38.6887 218.229 39.7895 217.064 39.9703Z" fill="#0E9347"/>
<path d="M210.457 32.323C208.022 32.7011 205.98 34.2107 205.005 36.3134C203.864 35.9486 202.634 35.7059 201.258 35.9196C197.553 36.4948 194.91 39.724 194.939 43.4054L217.065 39.9702C218.123 39.8059 218.855 38.9334 218.903 37.8418C217.904 34.2024 214.268 31.7313 210.457 32.323Z" fill="#0D8944"/>
<path d="M212.501 38.5105L178.625 43.7701C178.264 41.4411 176.062 39.8315 173.733 40.1931L171.432 25.3723C173.761 25.0107 175.371 22.8094 175.009 20.4804L208.885 15.2208C209.247 17.5497 211.448 19.1594 213.777 18.7978L216.078 33.6186C213.749 33.9801 212.14 36.1815 212.501 38.5105Z" fill="#3BB54A"/>
<path d="M210.456 32.3231C208.021 32.7011 205.979 34.2107 205.005 36.3135C203.864 35.9486 202.634 35.7059 201.257 35.9196C198.293 36.3798 196.015 38.4681 195.245 41.1895L212.501 38.5104C212.139 36.1814 213.66 34.1023 215.972 33.6349C214.399 32.5782 212.468 32.0107 210.456 32.3231Z" fill="#0E9347"/>
<path d="M195.234 39.023C199.912 38.2968 203.041 33.4424 202.224 28.1804C201.407 22.9185 196.953 19.2415 192.276 19.9677C187.598 20.6939 184.469 25.5483 185.286 30.8102C186.103 36.0722 190.557 39.7492 195.234 39.023Z" fill="#0E9347"/>
<path d="M181.38 33.585C182.55 33.4034 183.35 32.3083 183.169 31.139C182.987 29.9696 181.892 29.1689 180.723 29.3504C179.553 29.532 178.753 30.6271 178.934 31.7964C179.116 32.9658 180.211 33.7665 181.38 33.585Z" fill="#0E9347"/>
<path d="M206.787 29.6403C207.957 29.4587 208.758 28.3636 208.576 27.1943C208.394 26.0249 207.299 25.2242 206.13 25.4057C204.961 25.5873 204.16 26.6824 204.341 27.8517C204.523 29.0211 205.618 29.8218 206.787 29.6403Z" fill="#0E9347"/>
<path d="M194.65 28.2724L192.532 28.6011C191.897 28.6997 191.408 28.342 191.309 27.7069C191.211 27.0717 191.568 26.5825 192.204 26.4839L195.379 25.9908C196.015 25.8922 196.372 25.403 196.274 24.7679C196.175 24.1327 195.686 23.775 195.051 23.8736L193.992 24.038C193.893 23.4028 193.404 23.0452 192.769 23.1438C192.134 23.2424 191.776 23.7316 191.875 24.3667C190.075 24.6461 188.913 26.236 189.192 28.0357C189.472 29.8354 191.061 30.9979 192.861 30.7185L194.978 30.3897C195.614 30.2911 196.103 30.6489 196.201 31.284C196.3 31.9192 195.942 32.4083 195.307 32.5069L192.131 33C191.496 33.0986 191.138 33.5879 191.237 34.223C191.336 34.8581 191.825 35.2158 192.46 35.1172L193.518 34.9528C193.617 35.588 194.106 35.9457 194.741 35.8471C195.377 35.7484 195.734 35.2592 195.636 34.6241C197.435 34.3447 198.598 32.7548 198.318 30.9552C198.039 29.1555 196.449 27.993 194.65 28.2724Z" fill="#89C763"/>
<path d="M201.442 51.0692C205.534 50.4338 208.337 46.6009 207.701 42.5082C207.066 38.4155 203.233 35.6129 199.14 36.2483C195.048 36.8837 192.245 40.7166 192.881 44.8093C193.516 48.902 197.349 51.7046 201.442 51.0692Z" fill="#FFCA5D"/>
<path d="M210.64 47.4726C214.733 46.8372 217.536 43.0043 216.9 38.9116C216.265 34.819 212.432 32.0163 208.339 32.6518C204.246 33.2872 201.444 37.1201 202.079 41.2127C202.715 45.3054 206.548 48.108 210.64 47.4726Z" fill="#F6B545"/>
<path d="M208.339 32.6518C204.21 33.2928 201.438 37.0841 202.079 41.2127C202.72 45.3414 206.512 48.1136 210.64 47.4726C214.769 46.8316 217.541 43.0403 216.9 38.9116C216.259 34.783 212.468 32.0107 208.339 32.6518ZM210.312 45.3553C207.347 45.8156 204.657 43.8482 204.197 40.884C203.736 37.9198 205.704 35.2293 208.668 34.769C211.632 34.3088 214.323 36.2762 214.783 39.2404C215.243 42.2045 213.276 44.8951 210.312 45.3553Z" fill="#FFCB5B"/>
<path d="M210.624 47.3667C214.769 46.8316 217.525 42.9344 216.9 38.9116L216.794 38.9281C216.265 39.0103 215.907 39.4995 215.884 40.0452C215.902 41.5602 215.375 43.0514 214.464 44.1686C213.749 45.147 212.666 45.8571 211.429 46.266C210.899 46.3482 210.542 46.8374 210.624 47.3667Z" fill="#F6B545"/>
<path d="M208.356 32.7577C204.211 33.2928 201.455 37.19 202.079 41.2127L202.185 41.1963C202.714 41.1141 203.072 40.6249 203.096 40.0792C203.077 38.5642 203.605 37.073 204.516 35.9558C205.231 34.9774 206.313 34.2673 207.551 33.8583C208.08 33.7762 208.438 33.287 208.356 32.7577Z" fill="#FFE27A"/>
<path d="M205.053 41.51C204.593 38.5458 206.56 35.8552 209.524 35.395C210.795 35.1978 212.025 35.4405 213.109 36.1394C211.853 35.0334 210.362 34.5061 208.668 34.7691C205.704 35.2293 203.737 37.9199 204.197 40.884C204.46 42.5778 205.414 43.839 206.727 44.6109C205.854 43.8791 205.25 42.7804 205.053 41.51Z" fill="#F19920"/>
<path d="M213.175 42.8509C213.069 42.8673 212.963 42.8838 212.841 42.7943C212.596 42.6155 212.547 42.2979 212.726 42.0533C213.262 41.3195 213.432 40.3174 213.301 39.4705C213.251 39.1529 213.43 38.9083 213.748 38.859C214.065 38.8097 214.31 38.9886 214.359 39.3062C214.54 40.4706 214.297 41.7009 213.688 42.6628C213.493 42.8016 213.281 42.8345 213.175 42.8509Z" fill="#FFCB5B"/>
<path d="M209.983 43.2381C209.348 43.3367 208.858 42.9789 208.76 42.3438L208.102 38.1094C208.004 37.4742 208.361 36.985 208.997 36.8864C209.632 36.7878 210.121 37.1456 210.22 37.7807L210.877 42.0151C210.976 42.6502 210.618 43.1395 209.983 43.2381Z" fill="#F19920"/>
<path d="M214.376 45.6999C213.224 43.1684 210.99 41.347 208.407 40.7723C207.606 38.4032 205.689 36.5325 203.481 35.5744C202.424 37.1479 201.856 39.079 202.169 41.0904C202.81 45.2191 206.601 47.9913 210.73 47.3503C212.122 47.2424 213.327 46.6218 214.376 45.6999Z" fill="#F19920"/>
<path d="M206.727 44.6109C205.838 43.7732 205.128 42.6909 204.93 41.4206C204.7 39.9385 205.122 38.4637 206.032 37.3466C205.771 37.0618 205.527 36.883 205.282 36.7042C204.372 37.8213 203.95 39.2961 204.197 40.8841C204.46 42.5778 205.414 43.8389 206.727 44.6109Z" fill="#E78825"/>
<path d="M208.53 40.8618L208.76 42.3438C208.859 42.979 209.348 43.3367 209.983 43.2381C210.618 43.1395 210.976 42.6502 210.877 42.0151L210.844 41.8034C210.127 41.3726 209.32 41.0643 208.53 40.8618Z" fill="#E78825"/>
<path d="M214.376 45.6999C214.05 44.9918 213.739 44.3895 213.217 43.82C212.469 44.5867 211.476 45.1744 210.312 45.3552C207.347 45.8155 204.657 43.8481 204.197 40.8839C203.95 39.2959 204.372 37.8211 205.282 36.704C204.671 36.2569 204.076 35.9155 203.391 35.6966C202.334 37.27 201.767 39.2012 202.079 41.2126C202.72 45.3412 206.512 48.1135 210.64 47.4724C212.122 47.2424 213.327 46.6218 214.376 45.6999Z" fill="#F6B545"/>
<path d="M213.911 44.7965C213.252 45.4409 212.349 45.9064 211.429 46.266C210.916 46.4541 210.558 46.9433 210.64 47.4726C212.122 47.2424 213.327 46.6217 214.376 45.6999C214.221 45.3988 214.066 45.0977 213.911 44.7965Z" fill="#F19920"/>
<path d="M203.391 35.6968C202.334 37.2702 201.767 39.2014 202.079 41.2127L202.185 41.1963C202.714 41.1141 203.072 40.6249 203.096 40.0791C203.077 38.5642 203.621 37.1787 204.426 36.0781C204.092 36.0215 203.742 35.8591 203.391 35.6968Z" fill="#FFCB5B"/>
<path d="M201.442 51.0692C205.534 50.4338 208.337 46.6009 207.701 42.5082C207.066 38.4155 203.233 35.6129 199.14 36.2483C195.048 36.8837 192.245 40.7166 192.881 44.8093C193.516 48.902 197.349 51.7046 201.442 51.0692Z" fill="#F6B545"/>
<path d="M200.054 49.1162C200.169 49.8572 200.373 50.4759 200.7 51.1841C200.912 51.1513 201.229 51.102 201.441 51.0691C205.57 50.4281 208.342 46.6368 207.701 42.5081C207.586 41.7671 207.382 41.1484 207.055 40.4402C206.843 40.473 206.525 40.5223 206.314 40.5552C202.185 41.1963 199.413 44.9876 200.054 49.1162Z" fill="#F19920"/>
<path d="M199.14 36.2483C195.012 36.8893 192.24 40.6806 192.881 44.8093C193.522 48.938 197.313 51.7102 201.442 51.0692C205.57 50.4282 208.342 46.6368 207.701 42.5082C207.06 38.3796 203.269 35.6073 199.14 36.2483ZM201.113 48.9518C198.149 49.412 195.458 47.4446 194.998 44.4805C194.538 41.5163 196.505 38.8257 199.469 38.3655C202.433 37.9053 205.124 39.8727 205.584 42.8368C206.044 45.801 204.077 48.4916 201.113 48.9518Z" fill="#FFCB5B"/>
<path d="M201.425 50.9632C205.57 50.4281 208.326 46.531 207.701 42.5082L207.596 42.5246C207.066 42.6068 206.709 43.0961 206.685 43.6418C206.703 45.1568 206.176 46.648 205.265 47.7652C204.55 48.7435 203.467 49.4536 202.23 49.8627C201.701 49.9447 201.343 50.4339 201.425 50.9632Z" fill="#F6B545"/>
<path d="M199.157 36.3542C195.012 36.8893 192.256 40.7865 192.881 44.8093L192.986 44.7929C193.516 44.7107 193.874 44.2214 193.897 43.6757C193.879 42.1608 194.406 40.6695 195.317 39.5524C196.032 38.574 197.115 37.8639 198.352 37.4548C198.881 37.3727 199.239 36.8835 199.157 36.3542Z" fill="#FFE27A"/>
<path d="M195.854 45.1065C195.394 42.1424 197.361 39.4518 200.325 38.9916C201.595 38.7943 202.826 39.037 203.91 39.736C202.654 38.63 201.163 38.1026 199.469 38.3656C196.505 38.8258 194.537 41.5164 194.998 44.4806C195.261 46.1744 196.215 47.4355 197.528 48.2075C196.655 47.4757 196.051 46.3769 195.854 45.1065Z" fill="#F19920"/>
<path d="M203.976 46.4473C203.87 46.4638 203.765 46.4802 203.642 46.3908C203.398 46.2119 203.348 45.8943 203.527 45.6498C204.064 44.9159 204.233 43.9138 204.102 43.067C204.053 42.7494 204.231 42.5048 204.549 42.4555C204.867 42.4062 205.111 42.585 205.161 42.9026C205.341 44.0671 205.099 45.2973 204.489 46.2593C204.294 46.398 204.082 46.4309 203.976 46.4473Z" fill="#FFCB5B"/>
<path d="M200.784 46.8346C200.149 46.9333 199.66 46.5755 199.561 45.9404L198.904 41.7059C198.805 41.0707 199.163 40.5816 199.798 40.483C200.433 40.3844 200.922 40.7421 201.021 41.3772L201.678 45.6117C201.777 46.2468 201.419 46.736 200.784 46.8346Z" fill="#F19920"/>
<path d="M204.848 40.8912C205.158 41.4935 205.469 42.0959 205.584 42.8369C206.044 45.801 204.077 48.4916 201.112 48.9518C200.795 49.0011 200.371 49.0669 200.037 49.0103L200.054 49.1162C200.169 49.8572 200.373 50.4759 200.7 51.1842C200.912 51.1513 201.229 51.102 201.441 51.0691C205.57 50.4281 208.342 46.6368 207.701 42.5081C207.586 41.7671 207.382 41.1484 207.055 40.4402C206.843 40.473 206.525 40.5223 206.314 40.5552C205.784 40.6375 205.361 40.7032 204.848 40.8912Z" fill="#F6B545"/>
<path d="M207.721 56.5991C211.813 55.9637 214.616 52.1308 213.981 48.0381C213.345 43.9455 209.512 41.1428 205.42 41.7783C201.327 42.4137 198.524 46.2466 199.16 50.3392C199.795 54.4319 203.628 57.2345 207.721 56.5991Z" fill="#F6B545"/>
<path d="M205.42 41.7783C201.291 42.4193 198.519 46.2106 199.16 50.3392C199.801 54.4679 203.592 57.2401 207.721 56.5991C211.849 55.9581 214.622 52.1668 213.981 48.0381C213.34 43.9095 209.548 41.1372 205.42 41.7783ZM207.392 54.4818C204.428 54.9421 201.737 52.9747 201.277 50.0105C200.817 47.0463 202.784 44.3558 205.748 43.8955C208.713 43.4353 211.403 45.4027 211.863 48.3669C212.324 51.331 210.356 54.0216 207.392 54.4818Z" fill="#FFCB5B"/>
<path d="M207.704 56.4932C211.85 55.9581 214.605 52.0609 213.981 48.0381L213.875 48.0546C213.346 48.1368 212.988 48.626 212.964 49.1717C212.983 50.6867 212.455 52.1779 211.545 53.2951C210.829 54.2735 209.747 54.9836 208.509 55.3926C207.98 55.4747 207.622 55.9638 207.704 56.4932Z" fill="#F6B545"/>
<path d="M205.436 41.8842C201.291 42.4193 198.535 46.3165 199.16 50.3392L199.266 50.3228C199.795 50.2406 200.153 49.7514 200.176 49.2057C200.158 47.6907 200.685 46.1994 201.596 45.0823C202.312 44.1039 203.394 43.3938 204.631 42.9848C205.161 42.9027 205.518 42.4135 205.436 41.8842Z" fill="#FFE27A"/>
<path d="M202.133 50.6364C201.673 47.6723 203.64 44.9817 206.604 44.5215C207.875 44.3242 209.105 44.5669 210.189 45.2659C208.933 44.1599 207.442 43.6326 205.748 43.8955C202.784 44.3557 200.817 47.0463 201.277 50.0105C201.54 51.7043 202.495 52.9654 203.807 53.7374C202.934 53.0056 202.33 51.9068 202.133 50.6364Z" fill="#F19920"/>
<path d="M210.256 51.9773C210.15 51.9937 210.044 52.0102 209.922 51.9207C209.677 51.7419 209.628 51.4243 209.806 51.1797C210.343 50.4459 210.513 49.4438 210.381 48.5969C210.332 48.2793 210.511 48.0347 210.828 47.9854C211.146 47.9361 211.391 48.1149 211.44 48.4325C211.621 49.597 211.378 50.8273 210.768 51.7892C210.573 51.928 210.361 51.9608 210.256 51.9773Z" fill="#FFCB5B"/>
<path d="M207.063 52.3645C206.428 52.4632 205.939 52.1054 205.84 51.4703L205.183 47.2357C205.084 46.6006 205.442 46.1114 206.077 46.0128C206.712 45.9142 207.201 46.2719 207.3 46.907L207.958 51.1415C208.056 51.7767 207.699 52.2659 207.063 52.3645Z" fill="#F19920"/>
</g>
<path d="M32.4 35.4C35.0933 35.4 37.2533 36.1867 38.88 37.76C40.5067 39.3333 41.32 41.6667 41.32 44.76V57H36.32V45.4C36.32 43.5333 35.88 42.1333 35 41.2C34.12 40.24 32.8667 39.76 31.24 39.76C29.4 39.76 27.9467 40.32 26.88 41.44C25.8133 42.5333 25.28 44.12 25.28 46.2V57H20.28V35.64H25.04V38.4C25.8667 37.4133 26.9067 36.6667 28.16 36.16C29.4133 35.6533 30.8267 35.4 32.4 35.4ZM56.3428 31.08C54.2361 31.08 53.1828 32.2267 53.1828 34.52V35.8H59.0628V39.8H53.3428V57H48.3428V39.8H44.8228V35.8H48.3428V34.44C48.3428 32.1467 49.0095 30.3467 50.3428 29.04C51.6761 27.7067 53.5561 27.04 55.9828 27.04C57.9028 27.04 59.4095 27.4267 60.5028 28.2L59.1028 31.96C58.2495 31.3733 57.3295 31.08 56.3428 31.08ZM71.7159 57.28C69.5559 57.28 67.6093 56.8133 65.8759 55.88C64.1426 54.9467 62.7826 53.6533 61.7959 52C60.8359 50.32 60.3559 48.4267 60.3559 46.32C60.3559 44.2133 60.8359 42.3333 61.7959 40.68C62.7826 39.0267 64.1426 37.7333 65.8759 36.8C67.6093 35.8667 69.5559 35.4 71.7159 35.4C73.9026 35.4 75.8626 35.8667 77.5959 36.8C79.3293 37.7333 80.6759 39.0267 81.6359 40.68C82.6226 42.3333 83.1159 44.2133 83.1159 46.32C83.1159 48.4267 82.6226 50.32 81.6359 52C80.6759 53.6533 79.3293 54.9467 77.5959 55.88C75.8626 56.8133 73.9026 57.28 71.7159 57.28ZM71.7159 53C73.5559 53 75.0759 52.3867 76.2759 51.16C77.4759 49.9333 78.0759 48.32 78.0759 46.32C78.0759 44.32 77.4759 42.7067 76.2759 41.48C75.0759 40.2533 73.5559 39.64 71.7159 39.64C69.8759 39.64 68.3559 40.2533 67.1559 41.48C65.9826 42.7067 65.3959 44.32 65.3959 46.32C65.3959 48.32 65.9826 49.9333 67.1559 51.16C68.3559 52.3867 69.8759 53 71.7159 53ZM97.6972 57.28C95.4839 57.28 93.4972 56.8133 91.7372 55.88C89.9772 54.9467 88.6039 53.6533 87.6172 52C86.6305 50.32 86.1372 48.4267 86.1372 46.32C86.1372 44.2133 86.6305 42.3333 87.6172 40.68C88.6039 39.0267 89.9639 37.7333 91.6972 36.8C93.4572 35.8667 95.4572 35.4 97.6972 35.4C99.8039 35.4 101.644 35.8267 103.217 36.68C104.817 37.5333 106.017 38.76 106.817 40.36L102.977 42.6C102.364 41.6133 101.591 40.88 100.657 40.4C99.7505 39.8933 98.7505 39.64 97.6572 39.64C95.7905 39.64 94.2439 40.2533 93.0172 41.48C91.7905 42.68 91.1772 44.2933 91.1772 46.32C91.1772 48.3467 91.7772 49.9733 92.9772 51.2C94.2039 52.4 95.7639 53 97.6572 53C98.7505 53 99.7505 52.76 100.657 52.28C101.591 51.7733 102.364 51.0267 102.977 50.04L106.817 52.28C105.991 53.88 104.777 55.12 103.177 56C101.604 56.8533 99.7772 57.28 97.6972 57.28ZM120.427 57.28C118.267 57.28 116.32 56.8133 114.587 55.88C112.854 54.9467 111.494 53.6533 110.507 52C109.547 50.32 109.067 48.4267 109.067 46.32C109.067 44.2133 109.547 42.3333 110.507 40.68C111.494 39.0267 112.854 37.7333 114.587 36.8C116.32 35.8667 118.267 35.4 120.427 35.4C122.614 35.4 124.574 35.8667 126.307 36.8C128.04 37.7333 129.387 39.0267 130.347 40.68C131.334 42.3333 131.827 44.2133 131.827 46.32C131.827 48.4267 131.334 50.32 130.347 52C129.387 53.6533 128.04 54.9467 126.307 55.88C124.574 56.8133 122.614 57.28 120.427 57.28ZM120.427 53C122.267 53 123.787 52.3867 124.987 51.16C126.187 49.9333 126.787 48.32 126.787 46.32C126.787 44.32 126.187 42.7067 124.987 41.48C123.787 40.2533 122.267 39.64 120.427 39.64C118.587 39.64 117.067 40.2533 115.867 41.48C114.694 42.7067 114.107 44.32 114.107 46.32C114.107 48.32 114.694 49.9333 115.867 51.16C117.067 52.3867 118.587 53 120.427 53ZM136.608 35.64H141.608V57H136.608V35.64ZM139.128 32.12C138.221 32.12 137.461 31.84 136.848 31.28C136.235 30.6933 135.928 29.9733 135.928 29.12C135.928 28.2667 136.235 27.56 136.848 27C137.461 26.4133 138.221 26.12 139.128 26.12C140.035 26.12 140.795 26.4 141.408 26.96C142.021 27.4933 142.328 28.1733 142.328 29C142.328 29.88 142.021 30.6267 141.408 31.24C140.821 31.8267 140.061 32.12 139.128 32.12ZM160.291 35.4C162.984 35.4 165.144 36.1867 166.771 37.76C168.397 39.3333 169.211 41.6667 169.211 44.76V57H164.211V45.4C164.211 43.5333 163.771 42.1333 162.891 41.2C162.011 40.24 160.757 39.76 159.131 39.76C157.291 39.76 155.837 40.32 154.771 41.44C153.704 42.5333 153.171 44.12 153.171 46.2V57H148.171V35.64H152.931V38.4C153.757 37.4133 154.797 36.6667 156.051 36.16C157.304 35.6533 158.717 35.4 160.291 35.4Z" fill="#363636"/>
<path d="M8.16 17.24C9.08 17.24 9.78 17.54 10.26 18.14C10.78 18.74 11.04 19.52 11.04 20.48C11.04 21.4 10.66 22.18 9.9 22.82C9.14 23.42 8.3 23.72 7.38 23.72C6.5 23.72 5.8 23.42 5.28 22.82C4.8 22.22 4.56 21.48 4.56 20.6C4.56 19.68 4.94 18.9 5.7 18.26C6.46 17.58 7.28 17.24 8.16 17.24ZM14.76 59H2.64V57.32H3.6C4.68 57.32 5.36 57.14 5.64 56.78C5.96 56.42 6.12 55.84 6.12 55.04V37.04C6.12 36.28 5.86 35.74 5.34 35.42C4.86 35.06 3.96 34.88 2.64 34.88V33.2C3.44 33.2 4.64 32.92 6.24 32.36C7.88 31.76 9.12 31.2 9.96 30.68L11.04 30.44V54.68C11.04 55.32 11.06 55.78 11.1 56.06C11.18 56.34 11.42 56.62 11.82 56.9C12.22 57.18 12.84 57.32 13.68 57.32H14.76V59Z" fill="#757575"/>
<defs>
<clipPath id="clip0">
<rect x="168" y="17.232" width="47.1377" height="47.1377" transform="rotate(-8.82531 168 17.232)" fill="white"/>
</clipPath>
</defs>
</svg>
